<svg 
 xmlns="http://www.w3.org/2000/svg"
 xmlns:xlink="http://www.w3.org/1999/xlink"
 width="48px" height="42px">
<path fill-rule="evenodd"  stroke="rgb(40, 40, 40)" stroke-width="2px" stroke-linecap="butt" stroke-linejoin="miter" fill="rgb(40, 40, 40)"
 d="M43.187,21.349 L23.431,2.808 L3.120,21.351 L2.648,20.855 L23.197,2.083 C23.332,1.955 23.539,1.955 23.671,2.085 L43.666,20.857 L43.187,21.349 ZM8.871,37.759 L18.741,37.759 L18.741,27.913 C18.741,27.822 18.779,27.732 18.840,27.668 C18.904,27.604 18.994,27.568 19.083,27.568 L27.599,27.568 C27.689,27.568 27.776,27.604 27.839,27.668 C27.903,27.732 27.939,27.822 27.939,27.913 L27.939,37.759 L37.995,37.759 L37.995,21.196 L38.677,21.196 L38.677,38.104 C38.677,38.194 38.639,38.282 38.575,38.346 C38.514,38.410 38.424,38.446 38.335,38.446 L27.599,38.446 C27.509,38.446 27.420,38.410 27.356,38.346 C27.292,38.282 27.257,38.194 27.257,38.104 L27.257,28.255 L19.423,28.255 L19.423,38.104 C19.423,38.194 19.388,38.282 19.324,38.346 C19.260,38.410 19.173,38.446 19.083,38.446 L8.531,38.446 C8.439,38.446 8.352,38.410 8.288,38.346 C8.224,38.282 8.189,38.194 8.189,38.104 L8.189,21.196 L8.871,21.196 L8.871,37.759 Z"/>
</svg>